<?xml version="1.0" standalone="no"?>
<!DOCTYPE svg PUBLIC "-//W3C//DTD SVG 20010904//EN"
 "http://www.w3.org/TR/2001/REC-SVG-20010904/DTD/svg10.dtd">
<svg version="1.0" xmlns="http://www.w3.org/2000/svg"
 width="1652.000000pt" height="1652.000000pt" viewBox="0 0 1652.000000 1652.000000"
 preserveAspectRatio="xMidYMid meet">
<metadata>
Created by potrace 1.16, written by Peter Selinger 2001-2019
</metadata>
<g transform="translate(0.000000,1652.000000) scale(0.100000,-0.100000)"
fill="#000000" stroke="none">
<path d="M5508 11753 c-54 -2 -98 -7 -98 -12 0 -5 -19 -11 -43 -14 -95 -13
-321 -125 -350 -173 -12 -21 -27 -17 -27 7 0 12 8 23 20 26 11 3 20 9 20 14 0
21 -59 -8 -115 -56 -33 -29 -69 -54 -80 -56 -11 -3 -21 -13 -23 -24 -2 -11
-18 -51 -35 -90 -41 -96 -56 -155 -45 -185 10 -27 3 -54 -12 -45 -16 10 -12
-39 5 -61 17 -22 20 -74 4 -74 -6 0 -9 9 -6 20 6 24 -12 38 -24 19 -7 -11 -11
-10 -23 6 -13 17 -15 18 -16 3 0 -9 5 -20 10 -23 16 -10 12 -19 -12 -30 -13
-6 -31 -26 -40 -45 -9 -19 -21 -39 -25 -45 -5 -5 -8 -29 -8 -52 0 -24 -3 -43
-8 -43 -16 0 5 -65 30 -91 24 -26 24 -28 8 -53 -17 -26 -17 -27 13 -65 l31
-39 -20 -38 c-13 -26 -19 -56 -18 -89 2 -30 -5 -67 -16 -94 -15 -37 -16 -50
-6 -93 14 -62 14 -102 0 -187 -13 -85 -21 -112 -55 -191 -28 -64 -28 -68 -34
-335 l-5 -270 -34 -70 c-46 -96 -54 -200 -21 -277 25 -59 24 -130 -5 -225 -18
-61 -24 -63 -106 -33 -80 28 -120 14 -153 -52 -23 -45 -93 -157 -106 -168 -31
-27 -50 -93 -30 -105 15 -9 12 -58 -5 -82 -22 -32 -190 -124 -332 -183 -146
-60 -211 -97 -361 -204 -240 -171 -384 -302 -597 -541 -58 -65 -142 -167 -173
-210 -4 -6 -28 -37 -53 -70 -71 -92 -222 -350 -298 -508 -87 -181 -182 -423
-216 -552 -15 -55 -44 -139 -66 -186 -58 -128 -79 -234 -79 -410 0 -150 -7
-192 -43 -242 -25 -36 -33 -103 -19 -159 8 -32 7 -63 -3 -118 -7 -41 -22 -129
-33 -195 -12 -66 -26 -183 -31 -260 -17 -216 -48 -506 -71 -655 -11 -74 -23
-155 -26 -179 -3 -25 -7 -47 -9 -51 -2 -3 -9 -44 -15 -90 -13 -99 -20 -129
-112 -480 -39 -146 -73 -278 -78 -295 -4 -16 -20 -55 -35 -84 -26 -51 -29 -67
-36 -225 -7 -150 -11 -183 -38 -266 -17 -52 -35 -114 -41 -137 -6 -24 -14 -43
-19 -43 -9 0 -52 105 -95 233 -15 44 -40 145 -57 227 -37 190 -90 311 -151
346 -66 38 -95 46 -173 46 -78 0 -167 -20 -246 -55 -19 -8 -72 -29 -119 -47
-47 -17 -101 -39 -120 -47 -19 -9 -85 -33 -146 -54 -61 -20 -121 -43 -133 -51
l-21 -13 0 -1252 0 -1253 3040 0 3041 0 36 35 c20 19 40 35 45 35 4 0 8 6 8
13 0 7 15 27 33 43 17 16 43 44 57 63 13 18 55 60 92 93 57 50 68 57 68 39 0
-12 -6 -21 -13 -21 -9 0 -13 -17 -14 -54 -1 -46 2 -55 21 -64 18 -8 22 -18 21
-47 0 -20 3 -38 7 -41 16 -10 82 -7 86 4 5 16 19 15 25 0 2 -7 2 -1 0 13 -3
19 3 30 21 42 23 15 25 15 29 -1 2 -9 2 -2 0 16 -3 21 0 32 6 28 17 -11 24 14
8 32 -29 34 -30 92 -1 92 17 0 17 1 4 34 -5 14 -6 26 -1 26 8 0 31 52 31 68 0
2 -11 2 -25 0 -14 -3 -28 -1 -31 4 -3 5 -19 6 -34 3 l-29 -6 11 35 c6 20 20
44 31 53 20 18 20 18 2 -10 -15 -24 -15 -27 -2 -27 9 0 20 -7 25 -17 6 -10 16
-14 27 -10 22 9 14 31 -13 35 -21 3 -32 22 -12 22 5 0 8 6 6 13 -1 6 -1 9 1 5
10 -18 23 -6 18 15 -5 17 1 31 21 50 14 15 30 25 34 22 4 -3 10 5 14 18 6 23
52 51 68 41 5 -3 4 3 -4 15 -10 17 -10 23 1 33 11 11 12 10 6 -1 -6 -11 -4
-13 8 -8 10 3 17 2 17 -2 0 -5 -6 -11 -12 -14 -7 -2 4 -6 24 -8 35 -5 37 -3
34 21 -2 22 1 25 30 26 19 0 47 12 69 28 20 15 43 25 50 22 8 -3 15 -1 15 4 0
13 36 13 61 0 15 -8 19 -7 19 5 0 11 11 15 39 15 22 0 41 5 43 10 6 18 89 42
163 47 77 6 98 12 44 14 l-34 1 40 8 c22 4 47 4 56 -1 9 -5 20 -4 26 2 8 8
508 13 653 7 8 0 80 5 160 11 182 14 179 14 160 1 -11 -7 -7 -8 15 -4 17 3 62
1 100 -4 39 -5 102 -6 140 -2 39 4 79 4 90 0 11 -4 88 -5 170 -1 169 7 233 4
200 -10 -15 -7 -12 -7 11 -3 115 20 712 22 680 2 -10 -7 17 -12 66 -12 9 0 15
-3 12 -8 -3 -4 6 -8 20 -8 14 0 26 5 26 12 0 6 9 2 20 -10 15 -16 32 -22 64
-22 30 0 48 -6 61 -20 10 -11 26 -20 35 -20 32 0 115 -34 140 -57 13 -13 31
-23 38 -23 9 0 12 -6 8 -15 -4 -10 1 -15 14 -15 11 0 20 -4 20 -8 0 -5 11 -15
25 -22 16 -9 21 -16 14 -21 -16 -9 5 -46 31 -54 11 -3 20 -15 20 -25 0 -11 9
-24 20 -30 24 -13 27 -40 4 -40 -11 0 -14 -8 -12 -27 4 -33 21 -34 28 -1 4 17
8 19 14 9 7 -11 10 -11 17 0 4 7 11 10 16 6 4 -4 3 -15 -3 -24 -7 -12 -6 -29
5 -60 13 -36 14 -46 3 -64 -15 -24 0 -51 24 -42 14 5 18 -9 14 -54 -1 -13 4
-23 10 -23 7 0 10 -28 8 -85 -3 -81 -4 -84 -22 -71 -11 7 -25 28 -32 47 l-12
34 -1 -33 c-1 -19 5 -46 13 -60 8 -15 17 -35 20 -44 6 -19 36 -25 36 -8 0 6
11 10 24 10 14 0 28 -4 31 -10 10 -16 1857 -14 1873 2 15 15 16 68 1 68 -5 0
-9 10 -7 22 3 20 -2 23 -35 26 -28 2 -42 -2 -51 -14 -19 -25 -76 -10 -76 21 0
12 6 25 14 28 7 3 16 28 20 56 4 28 10 51 14 51 4 0 8 12 9 27 0 15 6 29 12
31 20 7 12 42 -9 42 -16 0 -20 -7 -20 -31 l0 -32 -20 26 c-27 34 -17 57 26 57
31 0 34 3 34 30 0 17 5 30 11 30 5 0 7 4 4 10 -3 5 -26 10 -51 10 -38 0 -44
-3 -44 -21 0 -15 -4 -19 -16 -15 -9 3 -27 6 -40 6 -38 0 -28 17 14 24 45 8 67
35 76 98 6 41 5 47 -14 53 -11 3 -20 12 -20 20 0 18 -33 75 -44 75 -5 0 -15
-8 -22 -17 -12 -16 -13 -14 -14 18 0 35 2 37 40 43 45 7 48 11 21 34 -15 13
-20 32 -22 77 -3 73 7 112 32 125 14 8 17 20 16 53 -2 23 -6 48 -11 55 -4 6
-3 12 2 12 5 0 9 14 9 30 0 19 -3 26 -8 18 -14 -22 -19 -3 -9 33 17 59 14 67
-32 79 -24 6 -50 15 -58 20 -8 6 -25 14 -37 20 -17 7 -23 18 -23 39 0 16 -5
31 -12 33 -23 8 10 83 46 103 17 10 43 30 57 44 39 38 56 50 84 61 54 20 98
-23 114 -111 12 -68 18 -80 31 -60 5 10 18 12 40 8 17 -4 52 -2 76 4 40 10 44
14 44 41 0 16 4 27 10 23 5 -3 7 -12 3 -20 -3 -9 1 -15 10 -15 9 0 19 9 22 21
5 16 10 18 21 8 12 -10 14 -1 14 55 l0 66 40 0 c40 0 56 15 23 22 -15 3 -14 5
5 10 12 3 20 2 16 -3 -9 -16 8 -10 21 7 10 14 17 15 48 5 21 -7 37 -19 37 -27
0 -9 11 -14 30 -14 28 0 36 11 31 42 0 5 6 8 15 8 12 0 15 -7 12 -28 -3 -23 0
-27 19 -27 13 0 23 3 23 7 0 4 12 8 28 10 19 2 26 8 24 21 -3 20 1 20 45 8 20
-6 46 -5 70 1 21 5 47 11 58 12 33 4 87 -17 96 -39 9 -18 9 -18 5 3 -3 15 0
22 7 19 15 -6 10 95 -5 104 -5 4 -10 42 -10 85 0 107 -1 104 22 104 28 0 35
-41 18 -111 -11 -46 -12 -61 -3 -67 23 -14 37 -52 25 -67 -6 -8 -10 -22 -8
-32 1 -10 0 -22 -3 -28 -9 -15 2 -85 13 -85 5 0 7 13 3 29 -3 17 -2 32 4 36 7
4 11 -5 11 -22 1 -26 1 -27 15 -9 8 10 12 23 8 29 -3 5 -9 25 -14 45 -6 30 -4
38 12 50 12 8 19 25 19 46 0 31 21 78 107 236 16 30 42 73 56 94 15 21 27 45
27 52 0 7 4 14 9 16 9 3 649 1275 900 1791 143 291 152 307 178 308 23 1 25 2
8 7 -11 4 -20 12 -20 17 1 9 311 643 351 717 8 14 14 32 14 38 0 7 22 58 49
114 68 139 73 153 60 177 -25 48 -47 21 -161 -201 -60 -118 -114 -219 -119
-224 -5 -6 -16 -3 -27 7 -25 23 -266 137 -288 137 -58 1 -82 25 -63 63 l11 22
-22 -21 c-27 -27 -35 -77 -11 -69 10 3 26 -2 37 -10 10 -8 31 -15 46 -15 49 0
271 -108 288 -139 7 -15 3 -34 -20 -84 l-30 -64 -98 50 c-53 28 -91 52 -85 54
6 2 25 -3 42 -11 24 -13 35 -14 56 -4 30 13 34 28 5 21 -12 -3 -28 1 -38 9
-23 21 -66 27 -111 17 -55 -12 -135 19 -139 54 -2 18 -8 24 -18 20 -18 -7
-127 -232 -120 -247 3 -7 5 -6 5 2 1 6 7 12 15 12 9 0 12 -7 9 -20 -3 -11 0
-20 6 -20 6 0 11 5 11 10 0 25 91 -2 223 -66 63 -31 26 -56 -42 -28 -44 18
-82 11 -143 -28 -44 -28 -49 -29 -83 -17 -20 8 -41 19 -47 27 -16 18 6 60 37
72 14 5 25 14 25 20 0 6 -4 8 -10 5 -5 -3 -10 -1 -10 4 0 27 -19 6 -48 -53
-34 -68 -38 -81 -22 -71 8 5 64 -17 80 -32 2 -2 -14 -19 -35 -38 -22 -19 -35
-35 -30 -35 6 0 25 14 44 30 20 18 45 30 61 30 21 0 204 -77 252 -106 4 -2 10
0 13 6 4 6 -40 33 -108 65 -64 30 -118 58 -121 63 -6 9 58 32 89 32 10 0 33
-5 51 -12 27 -10 39 -8 81 9 53 23 103 21 103 -5 0 -20 -79 -182 -89 -182 -4
0 -8 -6 -8 -12 0 -21 -223 -470 -231 -466 -4 2 -41 20 -83 40 -42 19 -80 41
-84 48 -6 9 -3 9 13 1 38 -20 103 -8 124 23 12 17 9 28 -4 20 -22 -14 -93 -22
-104 -13 -7 6 -22 6 -38 -1 -15 -5 -39 -10 -54 -10 -33 0 -163 61 -159 75 2 6
20 19 40 31 21 11 48 30 62 42 33 29 69 28 136 -4 181 -88 229 -103 229 -70 0
8 -16 16 -38 18 -21 3 -63 17 -93 31 -30 14 -78 35 -106 47 -29 12 -53 27 -53
32 0 5 -8 8 -17 6 -10 -1 -32 3 -49 10 -31 13 -32 14 -17 45 43 96 47 102 78
99 17 -1 48 -10 70 -18 22 -9 51 -20 64 -25 22 -9 19 -12 -45 -45 -81 -43 -78
-40 -70 -53 4 -6 21 -2 43 12 48 28 120 45 158 36 17 -4 50 -12 75 -17 25 -6
54 -14 65 -17 l20 -7 -20 17 c-11 9 -27 21 -35 26 -13 8 -12 11 4 24 28 22 16
26 -22 8 -31 -15 -35 -14 -140 27 -124 49 -141 59 -118 72 9 5 16 14 16 19 0
6 -10 3 -22 -5 -34 -24 -41 -20 -35 21 6 36 5 35 -26 -22 -29 -55 -35 -60 -69
-63 -41 -3 -44 -9 -26 -58 9 -26 8 -38 -5 -65 -8 -19 -25 -54 -37 -79 -11 -25
-47 -92 -80 -150 -32 -58 -143 -274 -246 -480 -103 -206 -197 -391 -209 -410
-12 -19 -38 -72 -59 -118 -35 -82 -45 -111 -26 -82 7 11 10 8 10 -16 0 -20 -6
-34 -16 -38 -24 -9 -26 -8 -14 17 8 16 4 14 -14 -8 -14 -16 -26 -38 -26 -48 0
-11 -9 -21 -20 -24 -11 -3 -20 -13 -20 -22 -1 -9 -9 -40 -19 -70 l-19 -54 -7
34 c-12 56 -21 61 -104 57 l-75 -3 -11 45 c-6 25 -17 56 -25 69 -11 22 -11 23
6 16 48 -20 69 -17 80 12 36 92 37 104 9 178 -14 38 -31 73 -38 77 -6 4 -8 10
-5 14 8 8 27 -10 53 -49 10 -15 26 -32 37 -38 14 -8 8 11 -28 78 -25 48 -48
90 -50 92 -2 2 -15 -1 -29 -7 -23 -11 -32 -6 -106 54 -44 35 -106 81 -137 102
-31 20 -84 61 -117 92 -42 37 -76 59 -109 69 -32 9 -44 16 -34 22 7 4 23 6 35
2 14 -3 23 -1 23 6 0 9 21 10 77 5 50 -5 74 -4 70 3 -8 13 -141 26 -282 28
-153 3 -306 43 -440 117 -11 6 -52 13 -92 16 -68 4 -76 3 -170 -41 -54 -25
-156 -66 -228 -91 -71 -24 -175 -62 -231 -84 -112 -45 -262 -86 -369 -102
-157 -22 -685 -9 -1055 26 -91 8 -237 19 -325 24 -221 12 -345 27 -520 61
-197 38 -221 44 -250 63 -13 9 -31 13 -39 10 -21 -8 -73 -74 -131 -166 -27
-43 -50 -78 -52 -78 -6 0 9 53 25 90 8 19 16 38 16 41 1 5 38 83 58 124 6 11
7 17 3 13 -5 -4 -13 -1 -19 7 -10 13 -16 13 -53 0 -42 -14 -43 -14 -75 15 -18
17 -42 30 -53 31 -17 1 -16 2 5 9 23 7 22 8 -15 15 -37 8 -38 9 -15 16 14 4
19 7 12 8 -7 1 -10 5 -7 11 3 5 -6 12 -20 16 -19 5 -31 1 -45 -14 -11 -11 -32
-23 -49 -27 -16 -3 -32 -13 -35 -20 -8 -21 -92 -58 -115 -50 -14 4 -23 0 -31
-15 -6 -11 -15 -20 -20 -20 -17 0 -11 30 15 68 14 20 25 42 25 48 0 6 7 17 15
24 17 14 11 30 -12 30 -22 0 -100 -81 -108 -113 -4 -15 -11 -29 -15 -32 -11
-7 -60 15 -60 27 0 4 -7 8 -15 8 -8 0 -15 -6 -15 -12 0 -13 -69 -78 -82 -78
-16 0 -7 19 15 35 19 13 20 17 7 25 -12 8 -12 10 -1 10 8 0 11 3 7 7 -4 5 -13
0 -21 -10 -16 -22 -23 -6 -20 46 2 34 0 37 -19 31 -12 -3 -29 -13 -38 -21 -9
-8 -22 -12 -27 -8 -6 3 -11 1 -11 -5 0 -14 -77 -93 -108 -109 -12 -6 -22 -18
-22 -26 0 -21 -20 -19 -21 3 0 10 -3 12 -6 5 -2 -7 -15 -13 -28 -13 -13 0 -28
-6 -32 -12 -11 -18 -93 -81 -98 -76 -10 10 9 48 28 54 26 8 47 28 47 46 1 13
79 68 97 68 5 0 20 11 33 25 13 14 29 25 36 25 11 0 26 23 28 43 1 10 73 73
107 94 32 19 55 53 36 53 -7 0 -17 -4 -22 -9 -6 -5 -35 -22 -65 -38 -30 -16
-65 -36 -77 -43 -12 -8 -25 -12 -28 -8 -7 7 26 78 37 78 4 0 8 5 8 10 0 17
-62 11 -76 -7 -12 -17 -14 -17 -28 2 -12 15 -15 16 -16 5 0 -16 -109 -130
-125 -130 -4 0 -16 -7 -25 -15 -14 -13 -167 -112 -215 -139 -11 -6 -23 -15
-27 -20 -9 -13 2 -37 13 -30 6 3 25 7 44 8 51 4 34 -14 -56 -59 -87 -44 -105
-43 -122 10 -9 25 -6 31 19 52 16 12 70 43 121 68 131 65 178 98 278 192 46
43 54 55 47 74 l-8 22 -20 -25 c-10 -13 -33 -30 -51 -37 -17 -7 -40 -22 -50
-33 -16 -19 -47 -41 -122 -90 -14 -9 -34 -17 -43 -17 -9 -1 -23 -9 -30 -19 -7
-9 -24 -22 -37 -28 -26 -11 -25 -12 -115 72 l-48 46 -22 -21 c-44 -41 -50 -17
-8 30 35 39 102 166 102 193 -1 21 -1 21 -16 1 -8 -11 -19 -19 -24 -18 -10 3
-60 -61 -60 -76 0 -5 -8 -16 -17 -23 -10 -7 -29 -29 -42 -48 -14 -19 -30 -39
-38 -43 -7 -4 -13 -16 -13 -26 0 -34 -74 -45 -84 -13 -3 10 -35 33 -71 51 -36
18 -76 45 -90 59 -26 26 -34 62 -12 62 22 -1 97 -39 97 -50 0 -5 5 -10 12 -10
9 0 9 3 0 12 -18 18 -15 25 13 32 14 4 25 12 25 19 0 7 6 22 14 32 11 16 25
18 100 16 67 -1 88 2 92 13 3 7 13 12 23 9 12 -3 26 10 49 46 l31 50 -102 2
c-56 2 -133 2 -172 0 -38 -1 -112 1 -163 5 -79 5 -97 10 -119 30 -14 13 -30
24 -34 24 -16 0 -9 28 7 34 20 8 47 -12 40 -29 -9 -24 68 -38 171 -32 109 8
272 48 285 71 5 9 23 14 51 14 23 -1 58 6 77 15 19 8 45 18 58 22 12 3 22 10
22 15 0 14 -22 24 -29 13 -3 -6 -17 -16 -30 -23 -22 -11 -23 -11 -16 6 16 40
17 54 4 54 -7 0 -59 -23 -115 -50 -97 -47 -144 -61 -144 -41 0 5 13 14 29 20
68 29 145 150 145 230 0 58 -25 108 -98 199 -50 63 -95 109 -85 87 3 -5 26
-53 52 -106 37 -75 47 -107 47 -145 0 -65 -16 -120 -48 -164 -27 -35 -81 -89
-91 -91 -19 -2 -40 -9 -71 -22 -21 -9 -66 -15 -112 -15 l-77 0 4 27 c1 14 4
26 5 26 1 0 3 16 5 35 7 60 -9 69 -131 79 -60 4 -96 9 -81 10 16 0 40 10 54
21 14 11 32 20 40 20 8 0 21 7 29 15 14 13 14 15 0 15 -12 0 -14 7 -9 30 4 22
2 30 -9 30 -19 0 -68 55 -68 77 0 14 -2 15 -9 5 -13 -21 -46 -10 -49 16 -2 12
-11 22 -20 22 -12 1 -10 5 8 15 32 18 100 20 100 3 1 -8 6 -6 14 5 9 11 17 14
20 8 10 -15 36 -1 36 19 0 26 -53 41 -135 39 -48 -1 -69 2 -76 12 -6 9 -3 18
7 26 8 6 15 14 14 18 -1 4 17 26 39 50 23 24 41 48 41 53 0 6 8 13 17 16 11 4
13 10 6 17 -12 12 -69 -11 -100 -40 -14 -13 -29 -18 -40 -14 -10 3 -15 3 -11
-1 3 -4 -2 -26 -12 -49 -24 -54 -69 -248 -91 -387 -25 -162 -40 -227 -64 -280
l-16 -35 8 35 c4 19 7 48 7 64 1 25 -3 30 -24 30 -32 -1 -70 -13 -70 -24 0
-11 -60 -19 -66 -8 -3 5 -10 5 -16 2 -8 -5 -9 10 -5 49 6 62 -4 74 -23 28 -6
-16 -19 -37 -28 -47 -9 -11 -27 -39 -39 -64 -12 -25 -33 -56 -46 -70 -13 -14
-26 -33 -30 -43 -4 -10 -12 -15 -18 -11 -8 4 -9 -1 -4 -16 5 -15 1 -28 -13
-43 -29 -33 -52 -113 -38 -133 11 -14 14 -12 24 11 7 16 18 25 26 22 8 -3 18
8 26 29 8 19 17 34 21 34 4 0 9 10 12 22 4 12 9 19 13 15 4 -3 -1 -18 -10 -33
-10 -14 -14 -29 -10 -32 4 -4 9 -1 11 6 3 6 10 12 18 12 7 0 18 7 26 16 12 15
23 15 80 2 10 -2 24 -10 33 -17 14 -12 21 -12 41 -1 14 7 25 17 25 22 0 4 5 8
10 8 17 0 12 -25 -34 -162 -47 -141 -86 -279 -86 -302 0 -8 26 -27 57 -43 31
-15 93 -62 138 -103 45 -41 127 -114 183 -162 109 -95 150 -146 182 -229 12
-30 26 -58 31 -63 5 -6 9 -18 9 -27 0 -19 11 -24 75 -35 22 -4 60 -18 86 -31
26 -12 55 -23 64 -23 9 0 39 -11 67 -25 27 -14 59 -25 69 -25 11 0 30 -5 41
-11 19 -10 20 -17 14 -77 -14 -133 -68 -304 -171 -538 -56 -128 -99 -204 -115
-204 -6 0 -10 -8 -10 -17 0 -13 -3 -14 -8 -6 -14 23 -58 -28 -71 -82 -19 -81
-26 -78 -28 14 -3 88 -29 220 -48 233 -19 14 -55 9 -49 -7 3 -8 2 -20 -3 -27
-10 -16 -11 -128 -1 -128 4 0 8 -12 8 -26 0 -15 12 -38 30 -56 39 -38 39 -86
1 -148 -24 -39 -32 -45 -62 -45 -28 0 -35 -5 -43 -28 -7 -20 -7 -34 2 -47 10
-16 9 -18 -3 -14 -8 4 -15 1 -15 -6 0 -6 -5 -8 -10 -5 -6 3 -13 -1 -16 -10 -6
-14 -9 -14 -16 -3 -6 8 -8 -5 -4 -37 5 -42 3 -52 -13 -62 -18 -11 -19 -9 -14
35 6 68 8 76 15 87 3 6 2 46 -3 90 -8 72 -7 83 11 107 21 28 26 48 13 48 -5 0
-8 24 -9 52 -3 138 -17 274 -30 289 -8 8 -14 27 -14 41 0 36 -24 52 -78 52
-37 1 -47 -3 -50 -17 -2 -11 -12 -27 -23 -38 -19 -19 -19 -19 -19 1 0 11 -4
20 -10 20 -17 0 -12 60 6 67 8 3 13 12 10 19 -3 8 0 14 7 14 8 0 8 3 -2 9 -11
7 -11 15 -1 45 6 19 16 38 21 41 5 4 9 16 9 28 0 23 19 83 34 105 4 8 9 27 10
44 1 16 10 34 19 40 9 5 20 27 23 50 5 28 13 42 26 46 17 4 17 5 2 17 -16 11
-16 12 0 18 12 5 15 3 11 -6 -4 -6 5 2 19 18 14 17 26 41 26 54 0 16 4 21 14
18 9 -4 16 3 20 16 8 33 -4 95 -21 101 -14 6 -92 -28 -94 -42 -1 -4 -3 -16 -4
-27 -4 -41 -16 -60 -45 -80 -17 -11 -30 -29 -30 -41 0 -29 -30 -114 -41 -114
-8 0 -26 -76 -21 -93 1 -5 -6 -20 -16 -35 -10 -15 -24 -43 -31 -62 -27 -72
-54 -125 -67 -133 -8 -4 -14 -22 -15 -40 0 -27 -2 -29 -9 -12 -7 17 -9 17 -9
3 -1 -11 -9 -18 -22 -18 -20 0 -21 4 -15 49 6 49 1 81 -15 81 -17 0 -59 -48
-59 -69 0 -11 -4 -21 -8 -21 -12 0 -44 -59 -37 -70 3 -6 1 -10 -6 -10 -8 0 -9
-3 0 -13 6 -8 8 -17 4 -20 -3 -4 0 -13 7 -22 22 -26 7 -25 -55 6 -33 17 -70
28 -82 26 -14 -3 -23 1 -23 9 0 7 -9 16 -20 19 -11 3 -20 11 -20 16 0 5 -9 9
-20 9 -29 0 -29 55 0 63 11 3 23 13 26 24 7 19 52 63 64 63 12 0 117 96 202
183 42 44 89 103 105 134 26 53 96 133 115 133 4 0 8 5 8 10 0 6 9 20 20 32
39 43 15 87 -36 68 -86 -32 -84 -30 -84 -92 0 -50 -3 -58 -19 -58 -20 0 -51
53 -51 89 0 41 -21 67 -61 78 -57 15 -72 1 -61 -58 10 -51 5 -153 -8 -184 -4
-11 -14 -35 -20 -53 -7 -18 -32 -48 -54 -65 -104 -80 -186 -165 -186 -192 0
-8 -11 -17 -24 -21 -31 -7 -86 21 -86 45 0 10 -3 21 -7 25 -5 4 -8 15 -9 24
-1 10 -2 27 -3 40 -1 26 -27 29 -57 7 -28 -22 -53 -18 -66 10 -8 18 -8 28 1
39 7 8 10 20 6 26 -3 5 0 10 7 10 19 1 85 60 68 61 -8 0 -2 6 13 13 15 7 38
22 50 34 12 13 34 32 50 43 15 11 27 29 27 39 0 10 7 21 16 24 9 3 14 13 11
20 -3 8 0 16 8 18 12 3 12 6 0 22 -13 18 -16 17 -53 -13 -22 -17 -78 -49 -126
-71 -47 -23 -90 -49 -96 -58 -5 -9 -10 -14 -10 -10 0 4 -8 1 -17 -7 -21 -16
-95 -69 -173 -121 -96 -65 -254 -186 -287 -221 -17 -18 -36 -33 -42 -33 -6 0
-11 -4 -11 -10 0 -5 7 -10 16 -10 12 0 14 -4 7 -12 -15 -20 -83 -223 -83 -248
0 -6 -10 -24 -21 -39 -12 -16 -19 -34 -15 -39 3 -5 1 -24 -5 -42 -10 -27 -15
-31 -38 -25 -47 11 -71 52 -71 121 0 48 4 63 16 68 9 4 14 9 10 13 -8 9 24 43
41 43 16 0 18 -17 2 -22 -7 -2 -6 -8 4 -16 13 -11 17 -6 31 36 17 51 56 133
56 118 0 -5 9 -1 20 9 12 10 18 25 15 33 -3 8 2 23 12 32 10 10 38 41 63 70
71 83 183 191 208 201 13 5 26 17 29 27 2 10 20 24 39 31 19 7 34 17 34 22 0
5 9 9 20 9 11 0 20 4 20 9 0 5 15 14 33 20 17 6 45 22 62 35 25 20 28 26 16
40 -7 9 -19 16 -25 16 -12 0 -59 44 -138 128 -26 28 -51 52 -55 54 -12 5 -57
70 -71 101 -6 15 -15 53 -18 85 -9 87 -67 191 -100 178 -8 -3 -14 -1 -14 4 0
14 -27 12 -33 -2 -4 -8 -19 3 -41 29 -33 38 -40 41 -74 37 -20 -2 -31 -2 -24
2 23 11 12 24 -20 24 -18 0 -46 9 -63 20 -16 11 -38 20 -47 20 -9 0 -21 6 -25
13 -9 14 -37 32 -73 48 -14 6 -33 19 -43 30 -10 10 -29 19 -42 19 -14 0 -25 4
-25 9 0 5 -12 16 -27 23 -16 8 -37 19 -48 25 -11 7 -28 14 -38 17 -9 3 -22 17
-27 32 -6 15 -16 24 -24 21 -7 -3 -24 8 -37 24 -13 16 -29 29 -36 29 -6 0 -21
16 -33 35 -13 20 -30 35 -41 35 -12 0 -19 7 -19 19 0 10 -7 24 -15 31 -8 7
-15 21 -15 31 0 13 -7 19 -24 19 -27 0 -56 33 -56 64 0 11 -6 27 -14 35 -8 9
-17 38 -19 66 -3 27 -10 51 -16 53 -6 2 -8 8 -5 13 3 6 0 16 -6 24 -7 8 -8 15
-3 15 15 0 44 -36 36 -43 -3 -4 1 -7 10 -7 10 0 17 6 17 14 0 8 19 -5 43 -30
23 -24 47 -44 54 -44 6 0 24 -18 40 -40 15 -22 34 -40 40 -40 7 0 19 -13 28
-30 15 -29 25 -34 52 -31 7 1 22 -21 34 -50 17 -40 24 -47 31 -35 14 26 27 19
34 -19 6 -36 19 -52 27 -37 6 9 -14 105 -24 112 -3 3 -10 28 -14 55 -4 28 -10
55 -13 60 -4 6 -14 37 -23 70 -9 33 -25 94 -37 135 -66 234 -100 416 -82 434
14 13 40 -17 40 -46 0 -19 34 -26 45 -8 3 5 17 10 31 10 24 0 32 14 14 25 -6
3 -7 17 -4 29 4 16 -1 30 -14 42 -38 35 -92 109 -92 125 0 37 -40 44 -52 9 -3
-8 -10 5 -15 30 -7 33 -14 45 -26 44 -11 -1 -26 17 -44 52 -16 30 -39 76 -52
102 -13 26 -26 70 -27 98 -2 28 -20 93 -39 145 -28 75 -35 108 -35 167 0 69 1
72 24 72 31 0 42 -15 50 -69 4 -24 16 -56 26 -71 11 -16 20 -36 20 -47 0 -26
16 -47 29 -39 6 4 11 14 11 23 0 8 9 27 21 41 19 25 19 27 4 30 -10 2 -21 -1
-25 -8 -5 -8 -10 -9 -14 -2 -3 6 -1 12 5 14 9 3 9 9 0 25 -23 45 -5 117 32
129 21 7 47 -17 47 -43 0 -7 5 -13 10 -13 6 0 10 15 10 34 0 44 15 54 43 26
30 -29 95 -70 112 -70 8 0 18 -6 22 -13 4 -7 24 -23 43 -35 20 -11 47 -31 60
-42 14 -12 45 -31 69 -43 73 -37 81 -41 81 -49 0 -4 13 -14 30 -23 27 -14 127
-84 195 -137 16 -13 46 -31 67 -40 21 -9 38 -22 38 -28 0 -5 6 -10 14 -10 7 0
19 -7 26 -15 10 -12 24 -14 61 -9 41 6 49 4 49 -10 0 -9 5 -16 11 -16 22 0
-38 112 -66 123 -5 3 -50 35 -100 72 -86 64 -144 100 -279 173 -33 19 -75 45
-93 58 -17 13 -35 24 -40 24 -5 0 -25 11 -45 25 -20 14 -43 25 -51 25 -7 0
-28 11 -46 24 -18 14 -55 33 -82 42 -33 12 -49 24 -49 35 0 27 -59 37 -78 13
-13 -17 -14 -15 -7 21 4 22 12 43 18 47 8 5 8 8 -2 8 -11 0 -10 4 4 14 18 13
18 14 -4 21 -31 10 -46 -7 -31 -35 18 -33 -11 -21 -30 13 -12 22 -13 33 -1 74
21 76 20 88 -9 85 -25 -2 -25 -2 4 17 38 25 64 71 42 71 -9 0 -23 -11 -31 -24
-22 -34 -43 -39 -56 -15 -7 15 -7 24 1 34 10 12 7 17 -13 26 -30 13 -26 32 9
47 21 10 24 18 24 59 0 27 -4 54 -9 62 -7 10 -4 19 7 27 13 9 14 17 6 35 -13
28 -12 53 9 174 13 77 13 93 1 112 -8 12 -14 38 -14 58 0 19 -5 35 -11 35 -7
0 -9 9 -5 23 3 12 8 50 9 84 2 34 9 69 16 77 8 9 10 16 5 16 -19 0 23 20 43
20 46 0 74 66 33 77 -11 3 -20 13 -20 23 0 27 -30 80 -46 80 -8 0 -14 5 -14
11 0 6 6 9 14 6 15 -6 26 12 26 45 0 15 5 19 19 15 16 -4 21 2 26 33 4 21 2
47 -3 57 -5 10 -8 32 -8 48 1 25 6 31 27 33 15 2 33 -3 40 -11 18 -18 108 -52
116 -43 3 3 1 6 -6 6 -15 0 -88 46 -123 78 -24 22 -26 27 -13 45 10 15 11 24
2 37 -15 25 7 50 42 49 17 -1 20 -3 9 -6 -10 -2 -18 -11 -18 -18 0 -15 23 -11
46 7 7 5 16 2 24 -7 15 -18 37 -19 70 0 24 13 24 14 5 21 -11 4 -40 15 -63 25
-34 15 -48 16 -64 8 -20 -11 -21 -9 -15 21 4 17 31 82 62 145 44 91 59 113 79
117 15 3 23 1 20 -6 -4 -12 54 -56 75 -56 6 0 30 -9 52 -20 37 -19 40 -20 45
-3 3 10 9 27 13 38 12 31 6 78 -11 89 -11 7 -24 3 -47 -13 -37 -27 -43 -9 -11
32 20 25 20 28 5 57 -15 29 -15 34 0 56 8 13 22 24 30 24 7 0 16 4 19 9 8 13
-4 42 -15 35 -5 -3 -9 -1 -9 5 0 20 18 20 43 1 14 -11 30 -20 36 -20 6 0 11
-3 11 -7 0 -5 13 -17 29 -28 16 -10 27 -23 25 -27 -3 -5 0 -7 8 -6 17 4 26 61
27 168 1 47 6 103 13 125 6 22 11 45 10 52 -3 16 33 26 67 18 29 -6 38 -25 56
-114 4 -19 16 -43 26 -55 11 -11 19 -29 20 -40 0 -12 13 -41 28 -66 20 -34 34
-45 52 -45 22 0 24 4 24 45 0 25 4 51 8 58 10 14 43 16 52 2 3 -5 -1 -10 -9
-10 -23 0 -25 -12 -9 -58 10 -31 11 -47 4 -56 -17 -21 -20 -74 -5 -80 8 -3 14
-14 14 -24 0 -10 4 -22 8 -27 4 -6 14 -28 21 -50 8 -22 20 -44 27 -50 20 -15
84 -173 84 -206 0 -22 5 -29 19 -29 10 0 22 -8 26 -17 7 -17 8 -16 15 2 7 17
9 17 9 3 1 -11 6 -15 16 -12 11 5 13 2 9 -10 -3 -9 -1 -16 4 -16 6 0 14 -15
17 -34 4 -19 15 -43 26 -55 10 -11 19 -27 19 -35 0 -9 12 -36 26 -62 36 -65 2
-42 -110 75 -40 41 -70 47 -42 8 9 -12 44 -64 77 -114 34 -51 64 -93 67 -93 3
0 11 8 19 18 13 15 13 15 3 -6 -14 -28 -5 -58 27 -96 28 -33 48 -45 111 -65
23 -8 42 -18 42 -22 0 -4 15 -13 34 -19 19 -6 58 -30 86 -53 54 -44 78 -51 95
-29 8 10 10 3 7 -25 -2 -21 13 -144 33 -273 32 -210 42 -255 97 -417 34 -101
65 -183 69 -183 5 0 6 -7 3 -15 -10 -25 10 -17 22 9 9 20 9 23 -2 19 -16 -6
-19 20 -5 45 5 10 17 124 26 255 13 180 14 253 6 305 -5 37 -12 90 -15 117 -3
28 -25 107 -49 177 -41 118 -43 128 -30 159 9 22 10 36 3 43 -5 5 -10 19 -10
31 0 29 -49 102 -73 109 -10 2 -16 9 -12 15 3 6 1 11 -5 11 -6 0 -8 4 -5 10 3
6 -1 7 -9 4 -20 -8 -20 -12 -1 -31 9 -8 13 -23 10 -33 -3 -10 12 -54 35 -101
22 -45 40 -90 40 -99 0 -29 -30 -60 -59 -60 -15 0 -33 -6 -40 -12 -20 -21 -1
23 21 46 16 18 18 18 18 3 0 -26 20 -20 22 6 3 48 -5 81 -29 125 -14 26 -35
64 -46 85 -11 21 -26 41 -33 44 -8 3 -14 14 -14 24 0 16 -4 18 -17 11 -10 -5
-31 -12 -47 -16 l-30 -7 25 20 c16 14 20 23 13 28 -6 5 -21 23 -32 41 -11 18
-23 33 -27 32 -10 -2 -75 83 -75 98 0 7 -4 11 -8 8 -12 -7 -53 24 -47 35 10
14 42 11 49 -6 3 -8 10 -15 17 -15 6 0 23 -12 37 -28 43 -44 156 -142 164
-142 5 0 8 -11 8 -24 0 -14 5 -28 10 -31 6 -3 10 0 10 8 0 20 30 43 65 51 32
8 40 14 129 105 32 34 63 61 67 61 4 0 25 16 46 35 26 24 46 35 63 33 14 -1
31 1 38 5 6 5 32 5 57 1 33 -5 51 -2 70 10 13 9 34 16 45 16 11 0 31 7 44 16
16 10 26 12 31 5 11 -19 72 -12 146 18 40 16 78 37 85 45 6 9 16 16 22 16 13
0 58 71 54 86 -1 5 7 20 18 32 11 12 20 28 20 36 0 8 20 54 45 103 25 48 45
97 45 109 0 12 7 27 15 34 23 19 19 28 -25 50 -44 22 -49 16 -30 -34 8 -23 5
-29 -25 -52 -19 -14 -35 -34 -35 -43 0 -9 -7 -27 -16 -39 -8 -12 -13 -30 -10
-40 8 -26 -52 -96 -69 -82 -7 6 -19 8 -28 4 -10 -4 -15 0 -14 13 1 10 -4 17
-12 15 -7 -1 -19 5 -27 15 -12 16 -13 14 -8 -17 5 -33 5 -34 -10 -16 -9 11
-16 23 -16 28 0 4 -7 8 -15 8 -19 0 -19 14 -1 29 10 9 12 21 5 52 -11 47 -5
62 21 54 16 -5 18 -1 15 27 -1 18 -6 42 -10 53 -6 18 -5 18 5 3 6 -10 17 -18
25 -18 18 0 38 37 31 56 -3 8 1 14 9 14 8 0 15 4 15 9 0 14 -40 21 -66 11 -13
-5 -25 -6 -28 -1 -3 4 -35 8 -71 9 -36 0 -72 5 -78 11 -16 13 -22 75 -6 65 8
-4 9 3 4 25 -4 18 -2 37 3 44 6 7 12 23 15 37 4 25 4 25 12 3 4 -13 15 -23 24
-23 9 -1 37 -3 64 -5 29 -3 47 0 47 6 0 6 7 9 15 6 8 -4 17 -2 20 3 4 6 17 10
30 10 13 0 25 5 27 12 6 17 39 1 45 -22 7 -25 19 -25 33 0 12 23 30 27 30 6 0
-14 55 -76 68 -76 19 0 21 15 5 34 -10 12 -2 6 18 -12 37 -34 59 -30 59 13 0
11 9 49 20 85 21 70 19 122 -7 152 -8 9 -12 21 -9 27 8 12 -9 58 -28 77 -13
12 -15 12 -19 -4 -3 -9 -5 -4 -6 13 -1 18 -9 35 -21 43 -11 7 -20 19 -20 28 0
17 -57 44 -96 44 -14 0 -39 -9 -55 -21 -16 -11 -33 -18 -37 -15 -13 8 -36 -40
-26 -56 6 -11 5 -11 -8 0 -9 7 -16 28 -16 47 0 28 5 35 28 44 16 5 31 7 34 4
3 -4 6 -1 6 4 0 6 17 14 38 18 36 6 38 8 34 38 -3 18 -8 37 -13 43 -12 15 -6
60 14 107 21 50 24 101 7 122 -7 9 -14 44 -16 78 -4 100 -13 173 -24 201 -5
15 -10 39 -10 54 0 31 -27 105 -52 142 -21 33 -32 86 -19 95 6 3 8 17 5 30 -3
12 -1 26 5 29 13 8 3 36 -13 37 -6 0 -25 21 -41 47 -20 31 -36 46 -48 44 -9
-2 -20 4 -23 13 -5 11 -10 13 -19 5 -9 -8 -14 -6 -18 5 -4 8 -24 23 -47 32
-30 13 -40 23 -40 40 0 14 6 23 15 23 8 0 15 5 15 10 0 6 16 10 35 10 19 0 35
4 35 8 0 5 21 9 47 11 47 2 99 20 61 21 -19 0 -25 34 -8 45 17 11 11 24 -15
31 -28 7 -33 22 -10 30 23 9 18 52 -7 65 l-23 12 23 10 c17 8 22 17 20 43 -2
40 6 51 26 35 11 -9 25 -9 63 4 42 13 53 13 88 1 22 -8 45 -23 51 -35 6 -11
14 -18 19 -13 4 4 6 0 3 -8 -3 -11 15 -22 71 -41 42 -14 85 -30 95 -34 13 -6
23 -3 31 9 12 15 14 14 23 -14 11 -30 13 -31 89 -35 13 0 28 -6 35 -13 27 -27
41 -14 36 33 -4 28 -1 51 7 62 12 16 15 14 33 -16 17 -29 21 -31 30 -16 12 22
19 10 27 -46 8 -59 23 -118 24 -97 1 21 79 167 103 192 10 12 16 28 12 38 -3
10 -1 18 5 18 6 0 11 -6 11 -14 0 -20 29 -41 41 -29 5 5 12 32 16 60 4 35 10
50 18 47 13 -5 30 63 26 99 -2 10 4 26 13 36 11 12 17 47 21 123 5 91 3 112
-15 153 -11 26 -18 51 -15 55 3 5 -1 26 -10 47 -13 31 -18 35 -26 23 -9 -12
-10 -12 -5 4 4 12 -5 31 -29 58 -44 48 -105 142 -105 161 0 8 -11 22 -24 31
-14 8 -28 26 -32 38 -7 22 -52 68 -67 68 -4 0 -6 6 -5 13 2 6 -3 11 -10 9 -8
-1 -11 1 -8 6 9 15 -129 149 -204 197 -62 40 -84 48 -135 53 -54 4 -63 8 -85
38 -14 18 -34 34 -45 34 -11 0 -52 9 -90 20 -88 25 -215 43 -325 45 -47 1
-137 7 -200 14 -141 14 -114 14 -247 7 -95 -5 -113 -4 -113 8 0 13 -20 21 -90
34 -40 7 -117 9 -222 5z m681 -2072 c21 -11 50 -36 66 -56 25 -34 26 -38 12
-53 -12 -11 -38 -16 -106 -16 -49 -1 -93 2 -97 7 -4 4 3 18 15 31 13 13 23 40
25 62 2 22 4 40 5 42 4 8 48 -1 80 -17z m81 -461 c-13 -9 -8 -14 12 -12 3 1
14 -15 23 -34 15 -31 15 -38 2 -52 -29 -33 -57 -102 -63 -156 -4 -32 -14 -63
-25 -75 -11 -11 -19 -23 -19 -26 0 -20 -117 -95 -149 -95 -6 0 -16 -9 -23 -20
-7 -11 -23 -20 -35 -20 -15 0 -23 -6 -24 -17 0 -11 -3 -13 -6 -5 -2 6 -9 10
-14 6 -5 -3 -9 -1 -9 5 0 5 -8 12 -17 15 -18 6 -43 49 -43 74 0 11 3 12 14 3
21 -18 31 66 12 103 -16 32 -11 56 11 56 8 0 11 5 8 10 -4 6 2 26 13 44 14 23
17 38 10 49 -6 12 -5 17 5 17 8 0 29 14 47 30 18 17 29 30 25 30 -3 0 1 7 10
16 10 11 24 14 42 9 19 -4 32 0 49 16 16 15 31 20 48 17 18 -4 26 -1 26 8 0
10 13 14 43 14 31 0 38 -3 27 -10z m336 -621 c4 -8 25 -9 60 -5 64 7 107 -7
155 -53 30 -29 31 -33 19 -56 l-13 -25 -19 27 c-18 27 -18 27 -24 6 -8 -29
-38 -35 -87 -16 -23 8 -49 16 -57 17 -42 6 -58 18 -63 49 -3 17 -8 40 -12 50
-5 13 -2 17 13 17 12 0 24 -5 28 -11z m-166 -110 c47 -12 126 -22 175 -23 83
-2 90 -4 87 -22 -5 -26 -22 -35 -51 -29 -13 4 -27 2 -30 -3 -7 -12 -24 -15
-69 -13 -25 1 -35 6 -39 21 -5 19 -7 20 -24 4 -21 -19 -71 -12 -98 15 -9 9
-34 17 -56 18 -133 8 -175 20 -150 45 15 14 175 6 255 -13z m8117 -3636 c50
-23 50 -23 34 -32 -9 -6 -10 -11 -2 -15 6 -4 11 -2 11 3 0 14 54 14 78 2 9 -6
61 -30 115 -55 l97 -46 -21 -43 c-27 -53 -28 -54 -39 -37 -5 8 -12 12 -15 8
-4 -3 0 -12 8 -19 11 -11 12 -19 4 -36 -12 -27 -20 -29 -37 -8 -10 12 -10 18
1 33 11 14 11 15 -1 5 -25 -23 -64 -14 -185 42 -66 30 -129 55 -140 55 -40 0
-46 13 -28 58 9 23 19 42 24 42 4 0 10 14 14 30 8 35 26 38 82 13z m-192 -945
c55 -23 101 -42 103 -44 4 -3 -52 -114 -70 -137 -13 -17 -15 -17 -27 -3 -8 9
-24 16 -36 16 -13 0 -67 20 -121 45 -134 62 -147 68 -147 80 1 16 136 85 168
85 17 0 75 -19 130 -42z m-248 -103 c95 -43 156 -76 164 -87 3 -5 27 -10 53
-12 53 -4 63 -10 49 -28 -6 -7 -88 -167 -183 -356 -95 -188 -175 -341 -177
-338 -3 2 12 38 31 79 20 41 36 82 36 91 0 10 9 29 20 43 26 33 25 47 -2 40
-13 -4 -45 7 -88 29 -36 18 -74 34 -83 34 -26 0 -87 27 -87 39 0 5 19 14 43
20 23 5 62 15 86 22 42 12 72 9 199 -17 24 -5 32 19 11 32 -8 5 -6 10 5 16 9
5 14 13 11 18 -3 4 6 11 20 14 24 6 36 36 15 36 -5 0 -10 -3 -10 -8 0 -4 -23
-18 -50 -30 l-51 -23 -77 26 c-90 31 -204 86 -209 102 -2 6 23 23 57 39 33 15
60 31 60 35 0 4 16 10 35 13 27 5 48 0 104 -28 68 -35 168 -76 184 -76 17 0 5
19 -15 26 -13 4 -66 27 -118 52 -76 37 -90 47 -70 50 14 2 29 8 35 13 5 5 44
9 86 9 73 0 103 10 78 25 -20 13 -130 18 -152 7 -12 -6 -45 -18 -74 -27 -50
-16 -54 -15 -98 4 -25 11 -45 26 -45 33 2 44 70 115 112 117 9 1 52 -15 95
-34z m-210 -326 c45 -23 80 -45 78 -50 -3 -4 -20 -11 -37 -15 -34 -7 -42 -10
-96 -37 -38 -19 -97 -22 -107 -6 -10 16 52 149 70 149 5 0 47 -18 92 -41z
m-100 -185 c21 -9 46 -20 55 -25 10 -5 24 -9 32 -9 7 0 45 -16 85 -36 51 -25
71 -41 71 -55 0 -20 -34 -27 -45 -9 -8 13 -126 70 -145 70 -9 0 -33 9 -55 20
-22 11 -51 20 -65 20 -32 0 -55 14 -46 29 10 16 70 13 113 -5z m-89 -234 c41
-6 88 -18 104 -26 17 -9 52 -22 78 -30 27 -8 61 -21 76 -29 15 -8 31 -12 36
-9 12 8 -9 -43 -50 -118 -37 -70 -56 -83 -67 -48 -4 11 -11 18 -16 15 -5 -4
-9 -1 -9 4 0 6 -10 11 -22 11 -32 0 -43 11 -46 45 -2 16 -5 31 -7 33 -1 2 -50
4 -108 5 l-106 2 -19 45 c-29 69 -1 124 57 115 14 -3 59 -9 99 -15z m-1774
-336 c9 -3 16 -12 16 -20 0 -8 5 -14 10 -14 17 0 11 -38 -7 -43 -10 -3 3 -5
30 -6 26 0 47 3 47 8 0 18 49 18 69 0 11 -11 26 -19 33 -19 7 0 27 -14 45 -30
18 -17 37 -30 44 -30 16 0 2 -52 -18 -67 -10 -8 -13 -18 -7 -30 7 -16 8 -16
11 5 3 12 9 22 14 22 5 0 9 10 9 22 0 16 3 19 11 11 7 -7 8 -17 1 -29 -9 -18
-16 -62 -13 -91 1 -7 10 -22 21 -33 18 -18 23 -19 35 -6 8 8 15 21 15 30 0 28
20 27 48 -1 18 -18 26 -36 25 -53 -2 -14 -4 -37 -5 -52 -1 -15 -7 -29 -15 -32
-7 -3 -13 -12 -13 -20 0 -7 -6 -16 -14 -19 -15 -6 -36 10 -36 28 0 5 -9 16
-20 23 -11 7 -20 23 -20 37 0 21 -5 25 -30 26 -45 2 -48 3 -61 17 -7 6 -21 12
-30 12 -10 0 -19 4 -21 8 -4 10 -127 72 -143 72 -6 0 -32 18 -56 41 -24 22
-51 44 -59 49 -8 4 -19 23 -25 41 -17 50 7 105 51 119 19 7 34 16 34 21 0 11
3 11 24 3z m-123 -442 c184 -73 203 -87 159 -125 -11 -9 -20 -26 -20 -37 0
-16 -7 -20 -32 -20 -20 0 -28 -3 -21 -8 9 -6 7 -12 -7 -25 -11 -9 -20 -12 -20
-7 0 6 -8 10 -18 10 -10 0 -25 12 -32 26 -12 21 -12 29 -1 46 12 19 11 20 -13
16 -26 -5 -26 -5 -11 18 9 14 11 25 5 29 -7 4 -6 14 1 28 7 11 8 22 3 24 -5 2
-29 17 -54 34 -51 35 -53 35 61 -9z m639 -44 c51 -79 55 -96 35 -143 -10 -26
-12 -42 -5 -49 16 -16 11 -30 -6 -15 -9 7 -32 12 -51 10 -48 -4 -73 21 -73 71
0 24 4 37 10 33 6 -4 8 -11 5 -16 -4 -5 -2 -9 3 -9 5 0 7 20 5 44 -4 31 1 59
13 90 11 25 20 46 21 46 1 0 21 -28 43 -62z m-257 -155 c29 -20 54 -39 57 -43
3 -4 19 -13 35 -22 77 -39 151 -91 168 -117 13 -22 17 -44 15 -82 -3 -48 -6
-56 -37 -76 -54 -37 -98 -31 -170 22 -34 25 -66 45 -73 45 -6 0 -8 3 -5 6 4 4
-8 15 -26 25 -17 9 -31 22 -29 28 1 6 -3 11 -8 11 -14 0 -30 43 -40 104 -6 42
-4 56 15 92 15 29 18 41 9 37 -8 -3 -14 0 -14 7 0 20 46 3 103 -37z m-2743
-145 c16 -33 38 -61 60 -74 19 -13 46 -31 59 -41 l23 -19 -52 -114 c-78 -171
-57 -155 -207 -154 -150 2 -205 14 -377 85 -116 49 -217 81 -356 115 -111 27
-112 28 -34 44 99 20 171 38 254 64 228 71 317 94 418 107 52 6 113 18 136 25
22 7 43 13 46 13 3 0 16 -23 30 -51z m2393 -74 c12 17 19 16 102 -13 50 -17
96 -38 103 -48 6 -9 12 -34 12 -54 0 -29 -7 -43 -31 -64 -37 -31 -66 -28 -144
14 -82 45 -95 55 -95 73 0 10 -5 15 -13 12 -7 -2 -13 3 -13 13 0 10 -4 37 -8
61 l-8 44 41 -28 c39 -25 42 -26 54 -10z m-4319 -236 c-21 -25 -144 -157 -187
-202 -16 -16 -46 -52 -66 -80 -39 -52 -285 -329 -396 -446 -34 -36 -70 -78
-80 -94 -17 -28 -18 -29 -26 -9 -10 29 -90 56 -174 59 -157 6 -263 5 -311 -5
-50 -10 -131 -48 -166 -79 -15 -12 -18 -13 -18 -1 0 12 -2 12 -9 0 -5 -7 -13
-11 -19 -7 -6 3 -12 1 -14 -6 -3 -9 -6 -9 -11 -1 -4 7 6 21 23 33 16 12 30 18
30 13 0 -4 4 -3 8 3 4 6 32 28 62 51 50 36 60 39 105 37 l50 -4 -32 15 c-39
18 -40 25 -12 51 12 10 33 42 47 69 21 41 27 68 30 148 4 81 9 107 29 143 24
43 26 44 76 46 119 4 178 11 342 43 72 14 139 27 151 29 11 1 26 6 31 9 6 4
13 -2 16 -13 3 -11 0 -20 -5 -20 -6 0 -4 -7 3 -17 13 -15 12 -16 -9 -11 -19 5
-21 4 -11 -8 14 -17 35 -18 37 -1 3 32 10 51 20 55 7 2 10 7 7 12 -7 12 62 33
86 27 10 -3 19 -1 19 4 0 4 28 17 63 28 61 18 282 123 302 142 19 19 27 8 9
-13z m4520 -10 c21 -29 20 -62 -1 -96 -23 -35 -34 -43 -55 -36 -9 2 -19 0 -23
-6 -11 -18 -22 -11 -29 20 -3 19 -14 34 -28 40 l-23 9 22 7 c13 3 21 10 18 14
-15 25 37 69 82 70 12 0 29 -10 37 -22z m-9977 -440 c13 -12 23 -29 23 -39 0
-9 11 -24 24 -32 26 -17 56 -69 56 -96 0 -9 6 -25 14 -36 7 -11 19 -38 25 -60
7 -22 16 -49 20 -60 45 -114 85 -290 74 -323 -4 -15 -3 -15 6 -2 9 13 11 11
11 -7 0 -12 5 -25 10 -28 6 -3 10 -24 10 -46 0 -24 -4 -38 -10 -34 -5 3 -10
24 -10 46 0 26 -4 39 -12 38 -27 -3 -38 2 -38 17 0 9 -8 22 -17 29 -13 10 -18
29 -19 76 -1 87 -2 89 -20 89 -18 0 -44 23 -44 39 0 6 -8 11 -17 11 -13 0 -9
9 16 34 26 27 29 34 14 30 -16 -5 -20 0 -22 28 -5 72 -8 81 -32 91 -20 8 -21
11 -6 14 23 6 22 13 -8 45 -14 15 -25 33 -25 39 0 7 -11 27 -25 44 -13 18 -21
36 -17 40 4 5 1 5 -5 1 -7 -4 -13 -2 -13 4 0 7 -8 9 -20 5 -11 -3 -27 -2 -37
4 -15 8 -12 12 20 27 20 10 37 21 37 26 0 14 13 9 37 -14z"/>
<path d="M7004 9774 c-23 -13 -54 -25 -70 -26 -56 -4 -105 -73 -103 -146 1
-20 3 -29 6 -19 4 16 43 25 43 9 0 -4 -14 -20 -30 -35 -17 -16 -33 -40 -36
-54 -7 -28 11 -77 25 -68 13 8 62 -16 55 -27 -7 -10 44 -88 57 -88 5 0 9 -7 9
-15 0 -8 8 -15 18 -16 9 0 36 -1 60 -3 23 -1 42 1 42 6 0 12 -53 62 -82 77
-15 8 -29 19 -31 25 -7 16 72 7 101 -12 14 -9 46 -15 75 -15 79 0 97 5 103 30
4 13 9 23 13 23 14 0 31 50 31 89 0 24 -7 44 -17 53 -23 21 -122 68 -142 68
-9 0 -23 5 -31 11 -12 9 -12 10 4 5 10 -4 25 -1 33 6 10 8 49 12 119 11 104
-1 104 -1 104 23 0 13 -4 24 -10 24 -5 0 -10 7 -10 15 0 24 -75 51 -176 63
-113 15 -110 15 -160 -14z"/>
<path d="M6073 7403 c-7 -3 -13 -11 -13 -18 0 -8 -9 -29 -20 -48 -12 -20 -22
-60 -25 -97 -4 -51 -10 -69 -31 -91 l-25 -27 30 -72 c18 -43 31 -89 31 -115 0
-55 18 -147 31 -160 7 -7 8 7 2 45 -8 58 -8 119 1 127 3 3 12 -2 21 -11 9 -9
21 -16 27 -16 10 0 9 -31 -7 -175 l-6 -50 26 69 c14 38 25 77 25 87 0 12 6 16
20 12 15 -4 20 0 20 15 0 12 9 26 21 33 15 8 20 18 16 35 -3 15 0 24 9 24 7 0
30 11 50 25 28 19 40 22 50 14 11 -9 14 -7 13 12 0 36 -16 107 -19 84 -1 -18
-3 -17 -13 5 -6 14 -17 28 -23 32 -6 4 -18 28 -25 53 -7 25 -17 45 -21 45 -4
0 -8 5 -8 11 0 5 5 7 12 3 6 -4 8 -3 5 3 -10 16 -50 24 -44 10 3 -8 -9 -12
-34 -13 -22 0 -39 2 -40 5 0 3 -2 16 -5 29 -2 13 0 21 5 18 15 -10 19 42 4 71
-13 27 -33 36 -60 26z"/>
<path d="M4520 7300 c0 -6 30 -48 66 -93 80 -99 132 -195 199 -372 30 -78 139
-507 161 -628 4 -21 20 -66 36 -100 67 -138 73 -166 74 -362 l1 -180 33 -68
c30 -63 32 -74 26 -135 -21 -221 -21 -218 8 -252 30 -36 60 -131 51 -159 -11
-35 -6 -173 8 -268 11 -71 13 -120 6 -216 -9 -119 -8 -128 16 -206 26 -81 43
-110 29 -48 -10 45 -15 125 -18 318 -2 92 -7 172 -11 178 -4 7 -6 60 -5 119 1
59 2 118 2 132 0 50 -14 156 -22 175 -15 34 -27 127 -25 190 1 33 -2 92 -7
130 -6 39 -11 81 -13 95 -1 14 -5 41 -9 60 -3 19 -8 58 -10 85 -3 28 -8 79
-11 115 -4 36 -11 76 -16 90 -4 14 -11 43 -14 65 -3 22 -9 58 -14 80 -5 22
-16 76 -26 120 -9 44 -20 96 -25 115 -31 129 -47 200 -67 293 -3 15 -9 30 -14
33 -5 3 -9 15 -9 28 0 12 -3 26 -7 30 -4 3 -8 17 -10 29 -2 12 -7 31 -12 42
-5 11 -15 38 -21 60 -50 170 -208 426 -304 491 -39 27 -46 29 -46 14z"/>
<path d="M15039 5938 c-31 -44 -45 -58 -59 -58 -6 0 -8 -4 -5 -10 3 -5 -27
-56 -67 -112 -40 -56 -80 -112 -88 -124 -8 -12 -40 -57 -70 -99 -30 -43 -77
-110 -103 -149 -27 -39 -59 -82 -72 -96 -12 -14 -39 -50 -59 -80 -20 -30 -57
-82 -82 -115 -24 -33 -56 -76 -69 -95 -13 -19 -49 -69 -79 -110 -31 -41 -80
-111 -110 -155 -30 -44 -80 -114 -110 -155 -31 -41 -90 -125 -131 -187 -74
-110 -95 -135 -95 -113 0 6 -4 8 -10 5 -5 -3 -10 1 -10 10 0 9 -4 14 -9 11 -8
-6 -23 17 -25 38 -1 5 -8 11 -16 13 -13 4 -13 3 0 -7 8 -6 10 -10 5 -8 -6 2
-44 39 -84 83 -41 44 -78 82 -82 83 -22 9 -3 -20 65 -99 41 -48 72 -89 69 -93
-4 -3 -1 -6 5 -6 7 0 12 -7 12 -15 0 -8 6 -15 14 -15 8 0 17 -14 21 -31 8 -37
-1 -52 -11 -15 -3 14 -11 26 -18 26 -6 0 -243 1 -526 2 l-515 1 -39 -24 c-21
-13 -59 -42 -85 -65 -59 -52 -75 -60 -158 -80 -95 -22 -360 -64 -408 -64 -22
0 -51 -6 -65 -13 -29 -15 -38 -42 -16 -50 23 -9 546 11 580 23 17 5 40 9 51 9
11 -1 157 2 325 5 168 4 427 9 575 12 149 2 281 6 296 7 56 7 61 32 16 90 -31
41 -37 69 -9 44 26 -24 34 -21 62 19 14 19 35 48 48 64 12 15 22 30 22 33 0
11 345 516 360 527 7 5 56 75 134 190 16 25 47 67 68 93 21 27 38 53 38 58 0
11 83 120 104 139 9 7 16 18 16 24 0 12 70 89 76 83 7 -7 -19 -83 -36 -105
-10 -13 -22 -37 -26 -55 -3 -18 -13 -45 -21 -61 l-15 -28 26 18 c14 11 26 25
26 32 0 17 26 15 83 -5 50 -18 58 -28 28 -38 -10 -3 -27 -15 -37 -27 -19 -21
-19 -21 1 -13 40 17 133 14 157 -5 13 -9 41 -20 63 -23 22 -2 51 -8 64 -12
l24 -8 -19 26 c-13 18 -28 26 -49 27 -17 0 -39 6 -50 14 -11 8 -63 32 -115 54
-52 23 -96 46 -98 52 -3 8 -8 7 -18 -1 -28 -23 -25 0 6 68 18 37 34 69 35 71
7 9 55 -12 55 -24 0 -8 5 -14 10 -14 21 0 7 26 -30 56 l-39 31 46 90 c39 76
49 90 67 86 19 -4 19 -3 4 7 -22 14 -23 30 -3 30 8 0 15 4 15 9 0 4 12 24 28
44 15 19 43 61 62 93 19 31 54 86 77 120 42 64 44 102 2 42z"/>
<path d="M4500 5781 c0 -4 19 -21 43 -36 23 -16 53 -39 67 -52 17 -18 32 -23
53 -20 19 2 26 0 23 -8 -5 -15 67 -87 109 -108 17 -9 47 -32 68 -51 21 -20 44
-36 51 -36 6 0 30 -24 51 -52 47 -62 72 -88 83 -88 12 0 32 46 32 71 0 33 -37
103 -72 138 -36 36 -119 81 -148 81 -10 0 -32 11 -48 25 -17 14 -35 25 -41 25
-6 0 -11 4 -11 9 0 5 -15 14 -32 21 -18 6 -49 21 -69 31 -20 10 -44 19 -54 19
-9 0 -28 9 -42 20 -26 20 -63 27 -63 11z"/>
<path d="M6640 5162 c-26 -59 -58 -85 -149 -119 -47 -17 -55 -25 -67 -59 -8
-21 -14 -43 -14 -47 0 -5 39 -8 88 -7 48 2 134 -1 191 -5 87 -7 103 -6 99 6
-2 8 -29 24 -59 37 -49 21 -66 22 -172 18 -65 -2 -116 -2 -113 1 2 3 44 18 93
34 48 16 96 39 105 50 25 30 42 98 30 123 -8 19 -12 15 -32 -32z"/>
<path d="M4347 4644 c-7 -13 -2 -193 8 -264 4 -30 14 -58 21 -63 25 -14 35
-110 30 -276 -3 -89 -8 -165 -10 -169 -2 -4 -1 -23 3 -42 l7 -35 14 25 c10 18
13 60 12 149 -2 123 -2 124 18 106 15 -14 20 -15 20 -4 0 36 -29 189 -40 209
-7 13 -14 48 -15 79 -1 31 -10 76 -19 101 -8 25 -16 56 -16 70 -1 38 -26 125
-33 114z"/>
<path d="M5954 4334 c-12 -50 -68 -150 -166 -291 -16 -24 -26 -43 -22 -43 4 0
-2 -8 -13 -17 -11 -10 -24 -29 -28 -42 -10 -32 -65 -125 -76 -129 -5 -2 -9
-12 -9 -22 0 -11 -19 -61 -41 -112 -23 -51 -45 -111 -49 -133 -7 -35 -8 -32
-7 25 0 42 5 69 13 75 10 7 11 18 5 40 -8 27 -11 26 -15 -4 -3 -23 -16 -21
-17 2 -2 38 -3 45 -10 51 -9 10 -9 -20 3 -182 6 -84 15 -155 19 -158 5 -3 9 7
9 22 0 45 47 183 95 279 25 50 45 84 45 77 0 -7 -7 -26 -15 -41 -21 -41 -8
-45 25 -7 35 39 69 132 63 172 -4 23 7 49 45 112 27 45 53 79 57 74 5 -4 5 -2
1 5 -3 6 11 44 32 85 42 78 78 176 69 185 -4 3 -9 -8 -13 -23z"/>
<path d="M7413 4098 c-5 -7 -18 -30 -28 -51 -11 -21 -35 -55 -52 -75 -23 -26
-33 -47 -33 -70 0 -18 4 -31 8 -28 4 2 19 -16 32 -42 34 -66 62 -82 73 -42 3
12 14 20 27 20 17 0 21 5 19 28 -3 32 9 72 21 72 13 0 38 96 32 125 -4 25 -58
75 -79 75 -6 0 -15 -6 -20 -12z"/>
<path d="M5260 3983 c0 -31 24 -149 40 -198 23 -72 23 -105 4 -168 -32 -99
-143 -166 -279 -169 -38 0 -85 2 -102 6 -47 11 -41 -8 7 -23 66 -20 130 -24
205 -13 83 12 98 15 105 22 3 4 25 12 48 19 59 17 146 102 161 156 13 49 14
82 2 89 -5 3 -12 21 -15 40 -10 50 -54 126 -112 190 -49 53 -64 65 -64 49z"/>
<path d="M5784 3403 c-28 -24 -51 -98 -36 -116 17 -21 1 -74 -19 -62 -27 17 5
-66 56 -148 21 -33 35 -46 48 -43 10 3 17 -2 17 -11 0 -8 5 -11 10 -8 7 4 8
11 1 18 -5 7 -7 26 -5 42 26 205 29 292 11 317 -20 26 -59 31 -83 11z"/>
<path d="M15070 1487 c0 -36 48 -144 78 -175 6 -7 12 -18 12 -24 0 -6 6 -19
14 -27 8 -9 31 -47 52 -86 20 -38 48 -88 61 -110 13 -22 30 -55 39 -73 31 -68
28 -68 491 -76 230 -4 482 -8 561 -10 l142 -4 0 94 c0 84 -2 94 -18 94 -10 0
-121 7 -248 15 -264 17 -225 -2 -331 160 -37 57 -63 88 -59 73 3 -16 4 -28 2
-28 -5 0 -91 114 -104 137 -6 10 -36 14 -120 16 -106 2 -112 1 -111 -18 0 -11
51 -103 112 -205 l112 -185 50 -8 c122 -19 154 -28 148 -43 -3 -9 1 -14 13
-14 14 0 16 -2 5 -12 -9 -10 -76 -12 -279 -10 -147 1 -278 5 -292 7 -26 6 -49
46 -248 420 -30 55 -60 107 -68 115 -12 12 -14 9 -14 -23z"/>
</g>
</svg>
